<?xml version="1.0" encoding="UTF-8"?>
<svg version="1.1" xmlns="http://www.w3.org/2000/svg" width="689" height="362">
<path d="M0 0 C1.68464889 -0.00435296 3.36929581 -0.00953805 5.05393982 -0.01548767 C9.60994205 -0.02882826 14.16586106 -0.0294617 18.72187901 -0.02692437 C22.53609081 -0.02585098 26.35028604 -0.03074757 30.16449428 -0.03552979 C39.17038522 -0.04660858 48.17623445 -0.047072 57.18212891 -0.04101562 C66.44623658 -0.03498095 75.71019218 -0.04727774 84.97427392 -0.06858569 C92.95082316 -0.08625185 100.92732422 -0.09219504 108.90389228 -0.08894795 C113.65777458 -0.08714243 118.41154847 -0.0896975 123.1654129 -0.10366249 C127.64052206 -0.11631756 132.11539588 -0.11422479 136.59050179 -0.1012516 C138.22340795 -0.09890263 139.85633108 -0.10155948 141.48921776 -0.10987473 C153.51624489 -0.16665504 164.8731784 0.95493978 175.99121094 5.8996582 C176.96445312 6.32504883 177.93769531 6.75043945 178.94042969 7.1887207 C180.40526905 7.86182044 181.8618184 8.55371193 183.30371094 9.2746582 C183.30371094 9.9346582 183.30371094 10.5946582 183.30371094 11.2746582 C184.95371094 11.9346582 186.60371094 12.5946582 188.30371094 13.2746582 C188.30371094 13.9346582 188.30371094 14.5946582 188.30371094 15.2746582 C188.87605469 15.35458008 189.44839844 15.43450195 190.03808594 15.5168457 C198.0248036 18.18826506 203.01983295 28.6187079 206.68969727 35.73510742 C213.4904401 49.49673344 213.45472078 63.17129206 213.44897461 78.24829102 C213.45197287 79.83146747 213.45537692 81.4146432 213.45915222 82.99781799 C213.46792848 87.26870267 213.47032763 91.53956727 213.47096801 95.81046009 C213.47168213 98.48694119 213.47382327 101.1634173 213.47646523 103.83989716 C213.4856975 113.20047831 213.48980276 122.5610453 213.48901367 131.92163086 C213.48841343 140.60971735 213.49896026 149.29774166 213.51475734 157.98581243 C213.52788609 165.47665548 213.53319534 172.96747833 213.53255826 180.45833278 C213.53230484 184.91824077 213.53506895 189.37809341 213.54573631 193.83798981 C213.55550767 198.0373059 213.55543543 202.23651473 213.54821968 206.43583488 C213.54718497 207.96469977 213.54946925 209.49357167 213.55558014 211.0224247 C213.64080062 233.84692788 210.13347869 252.0798393 193.77636719 268.8059082 C182.55911508 279.99340633 167.63781076 286.49127245 151.65380859 286.54881287 C150.92730638 286.55404954 150.20080416 286.55928622 149.45228672 286.56468159 C147.04072508 286.57957015 144.62937771 286.58038427 142.21777344 286.58105469 C140.47902575 286.58868395 138.74028141 286.59711275 137.00154114 286.60627747 C132.29240647 286.62815995 127.58333672 286.63701351 122.87415695 286.64210391 C119.92514028 286.64575638 116.97614038 286.65200119 114.02713013 286.6591053 C103.71876281 286.68358285 93.41044566 286.69664701 83.10205078 286.70019531 C73.52722664 286.7038242 63.95272429 286.73367754 54.37799835 286.7755999 C46.13220895 286.81042424 37.8865255 286.82574588 29.64066315 286.82644135 C24.72728727 286.82723035 19.81423915 286.83579348 14.90093994 286.86443901 C10.27142401 286.89082704 5.64250269 286.89271066 1.01294518 286.87678337 C-0.67353945 286.87498494 -2.36005991 286.8815119 -4.04646873 286.89760208 C-19.0111266 287.03152101 -34.34341472 284.52748171 -46.69628906 275.2746582 C-47.03917969 274.57469727 -47.38207031 273.87473633 -47.73535156 273.15356445 C-48.05246094 272.53352539 -48.36957031 271.91348633 -48.69628906 271.2746582 C-50.02639242 270.92866117 -51.36030879 270.59721921 -52.69628906 270.2746582 C-63.11071186 261.82080895 -70.86599421 247.53360574 -72.69628906 234.2746582 C-72.78990965 231.74393498 -72.8399367 229.24106975 -72.83673096 226.71099854 C-72.83970208 225.96972111 -72.8426732 225.22844369 -72.84573436 224.46470332 C-72.85437598 221.99151262 -72.85592574 219.51837059 -72.85742188 217.04516602 C-72.86205324 215.2674245 -72.86707833 213.48968397 -72.87246704 211.71194458 C-72.88556184 206.88946856 -72.89203023 202.06700644 -72.8964777 197.24451542 C-72.89941298 194.2288933 -72.90351864 191.21327494 -72.90798187 188.19765472 C-72.92164875 178.75446314 -72.93131952 169.31128021 -72.93518376 159.86807942 C-72.93966346 148.98200734 -72.95721069 138.09606088 -72.98618436 127.21002698 C-73.00782614 118.78518838 -73.01788937 110.36038507 -73.01922488 101.93551898 C-73.02027106 96.90837185 -73.0261392 91.88134293 -73.04404449 86.85422516 C-73.06056849 82.12309995 -73.06265971 77.3921813 -73.05390549 72.66103745 C-73.05313744 70.93011546 -73.05744697 69.19918217 -73.06736374 67.46828842 C-73.13495899 54.92914647 -71.47202931 45.05208242 -65.69628906 33.8371582 C-65.35339844 33.14428711 -65.01050781 32.45141602 -64.65722656 31.73754883 C-62.99905174 28.46233711 -61.49881309 25.66908742 -58.69628906 23.2746582 C-58.03628906 23.2746582 -57.37628906 23.2746582 -56.69628906 23.2746582 C-56.57253906 22.3465332 -56.57253906 22.3465332 -56.44628906 21.3996582 C-55.69628906 19.2746582 -55.69628906 19.2746582 -53.63378906 18.0246582 C-52.99441406 17.7771582 -52.35503906 17.5296582 -51.69628906 17.2746582 C-51.69628906 16.6146582 -51.69628906 15.9546582 -51.69628906 15.2746582 C-50.70628906 15.2746582 -49.71628906 15.2746582 -48.69628906 15.2746582 C-48.69628906 14.6146582 -48.69628906 13.9546582 -48.69628906 13.2746582 C-41.79979704 7.7628949 -34.16550793 4.51401307 -25.69628906 2.2746582 C-24.49135803 1.93332352 -23.286427 1.59198883 -22.04498291 1.24031067 C-14.80319061 -0.34275917 -7.37365469 -0.01261571 0 0 Z M10.30371094 103.2746582 C9.94019531 104.30461914 9.57667969 105.33458008 9.20214844 106.39575195 C8.96214111 107.07573242 8.72213379 107.75571289 8.47485352 108.45629883 C7.93813054 109.97709621 7.40151169 111.49793034 6.86499023 113.01879883 C5.47065926 116.97082396 4.07478255 120.92228584 2.67480469 124.87231445 C-2.16584933 135.91200072 -2.16584933 135.91200072 -4.69628906 147.2746582 C-1.72628906 147.2746582 1.24371094 147.2746582 4.30371094 147.2746582 C4.96371094 144.6346582 5.62371094 141.9946582 6.30371094 139.2746582 C16.20371094 138.7796582 16.20371094 138.7796582 26.30371094 138.2746582 C26.96371094 141.2446582 27.62371094 144.2146582 28.30371094 147.2746582 C30.94371094 147.2746582 33.58371094 147.2746582 36.30371094 147.2746582 C34.85637339 142.07926258 33.26045311 136.95290949 31.55371094 131.8371582 C31.29565674 131.06235107 31.03760254 130.28754395 30.77172852 129.48925781 C28.50339415 122.74457911 26.04180386 116.08165613 23.50292969 109.43481445 C22.72936677 107.39633758 21.9931881 105.34308969 21.30371094 103.2746582 C17.67371094 103.2746582 14.04371094 103.2746582 10.30371094 103.2746582 Z M52.30371094 103.2746582 C52.30371094 117.7946582 52.30371094 132.3146582 52.30371094 147.2746582 C56.79996094 147.3571582 61.29621094 147.4396582 65.92871094 147.5246582 C68.03947021 147.57928223 68.03947021 147.57928223 70.19287109 147.63500977 C79.09449872 147.82711366 79.09449872 147.82711366 86.30371094 143.2746582 C89.22515435 139.7689261 89.88000172 136.65762336 89.73730469 132.20043945 C89.00878771 128.96477398 86.74711544 127.36049132 84.30371094 125.2746582 C83.97371094 124.2846582 83.64371094 123.2946582 83.30371094 122.2746582 C83.77808594 121.8209082 84.25246094 121.3671582 84.74121094 120.8996582 C87.07628441 118.47118179 87.29380199 117.40595176 87.55371094 113.9621582 C87.284738 109.99480744 86.87579988 108.27542863 84.30371094 105.2746582 C80.09757545 103.53899613 76.55828647 103.03451389 72.03027344 103.0793457 C70.9895166 103.08434082 69.94875977 103.08933594 68.87646484 103.09448242 C67.57370605 103.11269043 66.27094727 103.13089844 64.92871094 103.1496582 C58.67933594 103.2115332 58.67933594 103.2115332 52.30371094 103.2746582 Z M116.30371094 103.2746582 C112.62429222 112.48354045 109.07417024 121.62611433 106.28027344 131.1496582 C104.56817076 136.62838677 102.43157015 141.94628944 100.30371094 147.2746582 C103.27371094 147.2746582 106.24371094 147.2746582 109.30371094 147.2746582 C109.96371094 144.3046582 110.62371094 141.3346582 111.30371094 138.2746582 C117.90371094 138.6046582 124.50371094 138.9346582 131.30371094 139.2746582 C132.78871094 143.2346582 132.78871094 143.2346582 134.30371094 147.2746582 C136.94371094 147.2746582 139.58371094 147.2746582 142.30371094 147.2746582 C139.9668443 139.07187632 137.17701426 131.05300572 134.30371094 123.0246582 C133.86542969 121.78458008 133.42714844 120.54450195 132.97558594 119.2668457 C132.54761719 118.06801758 132.11964844 116.86918945 131.67871094 115.6340332 C131.29457031 114.55605469 130.91042969 113.47807617 130.51464844 112.36743164 C129.28538351 109.22784936 127.85691977 106.26548301 126.30371094 103.2746582 C123.00371094 103.2746582 119.70371094 103.2746582 116.30371094 103.2746582 Z M-5.69628906 172.2746582 C-5.69628906 177.5546582 -5.69628906 182.8346582 -5.69628906 188.2746582 C-5.36628906 188.2746582 -5.03628906 188.2746582 -4.69628906 188.2746582 C-4.69628906 183.9846582 -4.69628906 179.6946582 -4.69628906 175.2746582 C-4.03628906 174.9446582 -3.37628906 174.6146582 -2.69628906 174.2746582 C-3.02628906 173.6146582 -3.35628906 172.9546582 -3.69628906 172.2746582 C-4.35628906 172.2746582 -5.01628906 172.2746582 -5.69628906 172.2746582 Z M8.30371094 172.2746582 C7.97371094 173.5946582 7.64371094 174.9146582 7.30371094 176.2746582 C8.29371094 175.9446582 9.28371094 175.6146582 10.30371094 175.2746582 C10.30371094 179.5646582 10.30371094 183.8546582 10.30371094 188.2746582 C10.63371094 188.2746582 10.96371094 188.2746582 11.30371094 188.2746582 C11.30371094 182.9946582 11.30371094 177.7146582 11.30371094 172.2746582 C10.31371094 172.2746582 9.32371094 172.2746582 8.30371094 172.2746582 Z M37.30371094 172.2746582 C39.28371094 173.2646582 39.28371094 173.2646582 41.30371094 174.2746582 C40.97371094 173.6146582 40.64371094 172.9546582 40.30371094 172.2746582 C39.31371094 172.2746582 38.32371094 172.2746582 37.30371094 172.2746582 Z M60.30371094 172.2746582 C60.30371094 177.5546582 60.30371094 182.8346582 60.30371094 188.2746582 C60.96371094 187.9446582 61.62371094 187.6146582 62.30371094 187.2746582 C61.97371094 184.9646582 61.64371094 182.6546582 61.30371094 180.2746582 C63.61371094 180.2746582 65.92371094 180.2746582 68.30371094 180.2746582 C68.30371094 179.9446582 68.30371094 179.6146582 68.30371094 179.2746582 C65.99371094 179.2746582 63.68371094 179.2746582 61.30371094 179.2746582 C61.30371094 177.2946582 61.30371094 175.3146582 61.30371094 173.2746582 C63.94371094 173.2746582 66.58371094 173.2746582 69.30371094 173.2746582 C69.30371094 172.9446582 69.30371094 172.6146582 69.30371094 172.2746582 C66.33371094 172.2746582 63.36371094 172.2746582 60.30371094 172.2746582 Z M89.30371094 172.2746582 C89.30371094 177.5546582 89.30371094 182.8346582 89.30371094 188.2746582 C89.96371094 188.2746582 90.62371094 188.2746582 91.30371094 188.2746582 C91.30371094 182.9946582 91.30371094 177.7146582 91.30371094 172.2746582 C90.64371094 172.2746582 89.98371094 172.2746582 89.30371094 172.2746582 Z M108.30371094 172.2746582 C108.30371094 177.5546582 108.30371094 182.8346582 108.30371094 188.2746582 C111.27371094 188.2746582 114.24371094 188.2746582 117.30371094 188.2746582 C117.30371094 187.9446582 117.30371094 187.6146582 117.30371094 187.2746582 C114.66371094 187.2746582 112.02371094 187.2746582 109.30371094 187.2746582 C109.30371094 182.3246582 109.30371094 177.3746582 109.30371094 172.2746582 C108.97371094 172.2746582 108.64371094 172.2746582 108.30371094 172.2746582 Z M134.30371094 172.2746582 C134.30371094 177.5546582 134.30371094 182.8346582 134.30371094 188.2746582 C137.60371094 188.2746582 140.90371094 188.2746582 144.30371094 188.2746582 C144.30371094 187.9446582 144.30371094 187.6146582 144.30371094 187.2746582 C141.33371094 187.2746582 138.36371094 187.2746582 135.30371094 187.2746582 C135.48933594 186.0784082 135.67496094 184.8821582 135.86621094 183.6496582 C136.33483063 179.99182113 136.11852106 176.89603655 135.30371094 173.2746582 C138.27371094 173.2746582 141.24371094 173.2746582 144.30371094 173.2746582 C144.30371094 172.9446582 144.30371094 172.6146582 144.30371094 172.2746582 C141.00371094 172.2746582 137.70371094 172.2746582 134.30371094 172.2746582 Z M29.30371094 174.2746582 C30.30371094 176.2746582 30.30371094 176.2746582 30.30371094 176.2746582 Z M41.30371094 174.2746582 C42.30371094 176.2746582 42.30371094 176.2746582 42.30371094 176.2746582 Z M70.30371094 174.2746582 C70.63371094 175.2646582 70.96371094 176.2546582 71.30371094 177.2746582 C71.63371094 176.2846582 71.96371094 175.2946582 72.30371094 174.2746582 C71.64371094 174.2746582 70.98371094 174.2746582 70.30371094 174.2746582 Z M-2.69628906 176.2746582 C-1.69628906 178.2746582 -1.69628906 178.2746582 -1.69628906 178.2746582 Z M28.30371094 176.2746582 C28.30371094 178.5846582 28.30371094 180.8946582 28.30371094 183.2746582 C28.63371094 183.2746582 28.96371094 183.2746582 29.30371094 183.2746582 C29.30371094 180.9646582 29.30371094 178.6546582 29.30371094 176.2746582 C28.97371094 176.2746582 28.64371094 176.2746582 28.30371094 176.2746582 Z M42.30371094 176.2746582 C42.30371094 178.5846582 42.30371094 180.8946582 42.30371094 183.2746582 C42.63371094 183.2746582 42.96371094 183.2746582 43.30371094 183.2746582 C43.30371094 180.9646582 43.30371094 178.6546582 43.30371094 176.2746582 C42.97371094 176.2746582 42.64371094 176.2746582 42.30371094 176.2746582 Z M-0.69628906 181.2746582 C0.30371094 183.2746582 0.30371094 183.2746582 0.30371094 183.2746582 Z M71.30371094 182.2746582 C70.97371094 183.9246582 70.64371094 185.5746582 70.30371094 187.2746582 C70.96371094 186.9446582 71.62371094 186.6146582 72.30371094 186.2746582 C71.97371094 184.9546582 71.64371094 183.6346582 71.30371094 182.2746582 Z M0.30371094 183.2746582 C0.96371094 184.5946582 1.62371094 185.9146582 2.30371094 187.2746582 C2.96371094 187.2746582 3.62371094 187.2746582 4.30371094 187.2746582 C4.30371094 186.6146582 4.30371094 185.9546582 4.30371094 185.2746582 C2.98371094 184.6146582 1.66371094 183.9546582 0.30371094 183.2746582 Z M29.30371094 183.2746582 C30.30371094 186.2746582 30.30371094 186.2746582 30.30371094 186.2746582 Z M40.30371094 184.2746582 C41.30371094 186.2746582 41.30371094 186.2746582 41.30371094 186.2746582 Z M33.30371094 188.2746582 C33.30371094 188.6046582 33.30371094 188.9346582 33.30371094 189.2746582 C34.95371094 189.2746582 36.60371094 189.2746582 38.30371094 189.2746582 C38.30371094 188.9446582 38.30371094 188.6146582 38.30371094 188.2746582 C36.65371094 188.2746582 35.00371094 188.2746582 33.30371094 188.2746582 Z " fill="#12607B" transform="translate(274.6962890625,37.725341796875)"/>
<path d="M0 0 C2.77141717 -0.08089542 5.54047819 -0.14044062 8.3125 -0.1875 C9.09818359 -0.21263672 9.88386719 -0.23777344 10.69335938 -0.26367188 C11.45068359 -0.27333984 12.20800781 -0.28300781 12.98828125 -0.29296875 C14.03302612 -0.31653442 14.03302612 -0.31653442 15.09887695 -0.34057617 C17.58844351 0.10541655 18.46262449 1.03149608 20 3 C20.29296875 5.26171875 20.29296875 5.26171875 20.1875 7.6875 C20.16042969 8.49574219 20.13335937 9.30398437 20.10546875 10.13671875 C20.05326172 11.05904297 20.05326172 11.05904297 20 12 C17.703463 13.1482685 16.41686833 13.11561175 13.8671875 13.09765625 C13.06152344 13.09443359 12.25585938 13.09121094 11.42578125 13.08789062 C10.58402344 13.07951172 9.74226563 13.07113281 8.875 13.0625 C8.02550781 13.05798828 7.17601562 13.05347656 6.30078125 13.04882812 C4.20049091 13.03702874 2.1002367 13.01909306 0 13 C0 8.71 0 4.42 0 0 Z " fill="#1A647E" transform="translate(335,165)"/>
<path d="M0 0 C1.65 0.33 3.3 0.66 5 1 C5 1.66 5 2.32 5 3 C5.639375 3.28875 6.27875 3.5775 6.9375 3.875 C9 5 9 5 10 7 C10.37103568 10.93297819 10.31089131 13.36470037 8.5625 16.9375 C4.85142217 19.92446508 1.59138561 19.44147939 -3 19 C-3.33 17.68 -3.66 16.36 -4 15 C-4.66 15 -5.32 15 -6 15 C-6 11.7 -6 8.4 -6 5 C-7.98 5.99 -7.98 5.99 -10 7 C-10.33 6.01 -10.66 5.02 -11 4 C-9.68 3.34 -8.36 2.68 -7 2 C-7 2.66 -7 3.32 -7 4 C-6.01 3.34 -5.02 2.68 -4 2 C-2.68 2 -1.36 2 0 2 C0 1.34 0 0.68 0 0 Z M-3 5 C-2 7 -2 7 -2 7 Z M-4 7 C-4 9.31 -4 11.62 -4 14 C-3.67 14 -3.34 14 -3 14 C-3 11.69 -3 9.38 -3 7 C-3.33 7 -3.66 7 -4 7 Z M-3 14 C-2 17 -2 17 -2 17 Z " fill="#115D79" transform="translate(307,207)"/>
<path d="M0 0 C2.0622048 -0.054348 4.12482816 -0.09294961 6.1875 -0.125 C7.33605469 -0.14820313 8.48460937 -0.17140625 9.66796875 -0.1953125 C13.13010553 0.00762635 16.44646321 0.44646321 19 3 C19.23529412 8.52941176 19.23529412 8.52941176 18 11 C14.38132441 12.2062252 11.07493749 12.10816918 7.3125 12.0625 C6.61060547 12.05798828 5.90871094 12.05347656 5.18554688 12.04882812 C3.45699462 12.03706927 1.72848635 12.01913454 0 12 C0 8.04 0 4.08 0 0 Z " fill="#2D7187" transform="translate(335,147)"/>
<path d="M0 0 C3.3 0 6.6 0 10 0 C10 6.27 10 12.54 10 19 C7.03 19 4.06 19 1 19 C0 18 0 18 -0.11352539 16.23413086 C-0.10828857 15.48526611 -0.10305176 14.73640137 -0.09765625 13.96484375 C-0.09443359 13.15595703 -0.09121094 12.34707031 -0.08789062 11.51367188 C-0.07951172 10.66353516 -0.07113281 9.81339844 -0.0625 8.9375 C-0.05798828 8.08349609 -0.05347656 7.22949219 -0.04882812 6.34960938 C-0.03700373 4.23304337 -0.01906769 2.11651315 0 0 Z " fill="#C62F38" transform="translate(422,130)"/>
<path d="M0 0 C2.97019525 1.02958449 3.85340127 1.70182542 5.265625 4.57421875 C7.05031629 10.21865905 8.53952993 15.06517082 8 21 C3.71 21 -0.58 21 -5 21 C-6.20605119 17.38184643 -5.38034526 16.35876451 -3.83203125 13.04296875 C-2.62509296 10.07945361 -2.04417478 7.04969781 -1.4296875 3.91796875 C-1 2 -1 2 0 0 Z " fill="#276A80" transform="translate(289,149)"/>
<path d="M0 0 C5.89153564 5.2332635 6.409525 13.56001496 7 21 C2.38 21 -2.24 21 -7 21 C-6.40615522 18.43471112 -5.80038512 15.87324546 -5.1875 13.3125 C-5.02185547 12.59126953 -4.85621094 11.87003906 -4.68554688 11.12695312 C-3.67182652 6.9381841 -2.47940583 3.60188755 0 0 Z " fill="#568A9B" transform="translate(396,149)"/>
<path d="M0 0 C4 1 4 1 5.25 2.8125 C6 5 6 5 6 9 C7.98 9 9.96 9 12 9 C12.33 7.02 12.66 5.04 13 3 C14.32 3.33 15.64 3.66 17 4 C17.495 10.93 17.495 10.93 18 18 C12.71502591 19.76165803 12.71502591 19.76165803 10 20 C7.5 18.125 7.5 18.125 6 16 C5.01 16.66 4.02 17.32 3 18 C2.01 18 1.02 18 0 18 C0 12.06 0 6.12 0 0 Z M1 1 C1 6.28 1 11.56 1 17 C1.33 17 1.66 17 2 17 C2 12.71 2 8.42 2 4 C2.66 3.67 3.32 3.34 4 3 C3.67 2.34 3.34 1.68 3 1 C2.34 1 1.68 1 1 1 Z M4 5 C5 7 5 7 5 7 Z M6 10 C7 12 7 12 7 12 Z M7 12 C7.66 13.32 8.32 14.64 9 16 C9.66 16 10.32 16 11 16 C11 15.34 11 14.68 11 14 C9.68 13.34 8.36 12.68 7 12 Z " fill="#588FA3" transform="translate(268,209)"/>
<path d="M0 0 C0.33 0.99 0.66 1.98 1 3 C0.01 3.33 -0.98 3.66 -2 4 C-1.67 4.66 -1.34 5.32 -1 6 C-0.796875 8.09375 -0.796875 8.09375 -0.75 10.5 C-0.71132813 11.69109375 -0.71132813 11.69109375 -0.671875 12.90625 C-0.78015625 13.5971875 -0.8884375 14.288125 -1 15 C-4.31371 17.20914 -5.3446021 17.22481553 -9.1875 17.125 C-10.08855469 17.10695312 -10.98960937 17.08890625 -11.91796875 17.0703125 C-12.60503906 17.04710937 -13.29210937 17.02390625 -14 17 C-13.67 16.34 -13.34 15.68 -13 15 C-12.92883618 12.62597499 -12.91590915 10.24999323 -12.9375 7.875 C-12.94652344 6.59367188 -12.95554687 5.31234375 -12.96484375 3.9921875 C-12.97644531 3.00476563 -12.98804688 2.01734375 -13 1 C-8.62426048 0.40667939 -4.42471556 -0.13827236 0 0 Z M-4 2 C-3.67 2.99 -3.34 3.98 -3 5 C-2.67 4.01 -2.34 3.02 -2 2 C-2.66 2 -3.32 2 -4 2 Z M-3 10 C-3.33 11.65 -3.66 13.3 -4 15 C-3.34 14.67 -2.68 14.34 -2 14 C-2.33 12.68 -2.66 11.36 -3 10 Z " fill="#6898A8" transform="translate(349,210)"/>
<path d="M0 0 C2.25 2.125 2.25 2.125 2.56640625 4.11328125 C2.56284199 6.11995791 2.41393218 8.12502746 2.25 10.125 C-0.72 10.125 -3.69 10.125 -6.75 10.125 C-7.93429132 6.57212603 -7.74184231 4.71089143 -6.75 1.125 C-4.19191534 -1.15900416 -3.26282281 -1.0381709 0 0 Z " fill="#19627A" transform="translate(399.75,158.875)"/>
<path d="M0 0 C1.32 0.33 2.64 0.66 4 1 C4.33 5.62 4.66 10.24 5 15 C2.36 15.66 -0.28 16.32 -3 17 C-3.99 15.68 -4.98 14.36 -6 13 C-5.67 12.34 -5.34 11.68 -5 11 C-3.515 11.99 -3.515 11.99 -2 13 C-1.34 8.71 -0.68 4.42 0 0 Z " fill="#4D8495" transform="translate(281,212)"/>
<path d="M0 0 C1.65 0.33 3.3 0.66 5 1 C5 1.99 5 2.98 5 4 C2.11165997 6.10770759 0.61537605 7 -3 7 C-3 10.3 -3 13.6 -3 17 C-3.33 16.34 -3.66 15.68 -4 15 C-4.66 15 -5.32 15 -6 15 C-6 11.7 -6 8.4 -6 5 C-7.98 5.99 -7.98 5.99 -10 7 C-10.33 6.01 -10.66 5.02 -11 4 C-9.68 3.34 -8.36 2.68 -7 2 C-7 2.66 -7 3.32 -7 4 C-6.01 3.34 -5.02 2.68 -4 2 C-2.68 2 -1.36 2 0 2 C0 1.34 0 0.68 0 0 Z " fill="#478194" transform="translate(307,207)"/>
<path d="M0 0 C6.75 0.75 6.75 0.75 9 3 C9.40047444 5.32275177 9.7397104 7.65739357 10 10 C10.66 10 11.32 10 12 10 C11.84402344 10.556875 11.68804687 11.11375 11.52734375 11.6875 C10.11628585 17.21959455 9.97894495 21.38419724 11 27 C8.69 25.02 6.38 23.04 4 21 C4.33 20.01 4.66 19.02 5 18 C5.66 18 6.32 18 7 18 C8.40290113 13.61593398 8.57773759 9.13762909 7.375 4.6875 C5.3515006 2.20411438 3.02943733 1.790288 0 1 C0 0.67 0 0.34 0 0 Z " fill="#6794A5" transform="translate(353,141)"/>
<path d="M0 0 C6.6 0 13.2 0 20 0 C22 5 22 5 22 9 C25.3 8.67 28.6 8.34 32 8 C32 8.99 32 9.98 32 11 C22.00437637 11.63019694 22.00437637 11.63019694 17.8125 9 C17.214375 8.34 16.61625 7.68 16 7 C16.99 5.02 17.98 3.04 19 1 C12.73 1 6.46 1 0 1 C0 0.67 0 0.34 0 0 Z " fill="#83B0BA" transform="translate(281,176)"/>
<path d="M0 0 C1.76923828 0.01353516 1.76923828 0.01353516 3.57421875 0.02734375 C4.47785156 0.03894531 5.38148438 0.05054688 6.3125 0.0625 C8.09659802 3.12496747 8.54130021 5.28329273 8.4375 8.8125 C8.41945313 9.61171875 8.40140625 10.4109375 8.3828125 11.234375 C8.35960937 11.83765625 8.33640625 12.4409375 8.3125 13.0625 C5.16291169 9.63903445 4.75070891 6.61987263 4.3125 2.0625 C0.6825 2.0625 -2.9475 2.0625 -6.6875 2.0625 C-7.0175 3.7125 -7.3475 5.3625 -7.6875 7.0625 C-8.3475 8.0525 -9.0075 9.0425 -9.6875 10.0625 C-9.6875 7.0925 -9.6875 4.1225 -9.6875 1.0625 C-6.26517028 -0.07827657 -3.60076783 -0.03565117 0 0 Z " fill="#4F8192" transform="translate(291.6875,138.9375)"/>
<path d="M0 0 C2.31 0 4.62 0 7 0 C7.66 2.31 8.32 4.62 9 7 C8 8 8 8 5.71484375 8.09765625 C4.34005859 8.08025391 4.34005859 8.08025391 2.9375 8.0625 C2.01839844 8.05347656 1.09929687 8.04445312 0.15234375 8.03515625 C-0.55792969 8.02355469 -1.26820313 8.01195312 -2 8 C-1.34 7.67 -0.68 7.34 0 7 C0 4.69 0 2.38 0 0 Z " fill="#488295" transform="translate(337,219)"/>
<path d="M0 0 C5.94 0 11.88 0 18 0 C18 0.99 18 1.98 18 3 C17.01 2.67 16.02 2.34 15 2 C9.94626428 2.17472061 9.94626428 2.17472061 6.0625 5.0625 C5.711875 5.701875 5.36125 6.34125 5 7 C3.02 6.34 1.04 5.68 -1 5 C-0.67 3.35 -0.34 1.7 0 0 Z " fill="#185A71" transform="translate(387,177)"/>
<path d="M0 0 C0.99 0.33 1.98 0.66 3 1 C2.01 3.97 1.02 6.94 0 10 C-0.66 10 -1.32 10 -2 10 C-3.485 15.445 -3.485 15.445 -5 21 C-5.66 21 -6.32 21 -7 21 C-6.69196223 13.14503688 -3.46909516 6.95940803 0 0 Z " fill="#347185" transform="translate(210,69)"/>
<path d="M0 0 C2.79224073 -0.08071788 5.58216566 -0.14035408 8.375 -0.1875 C9.1690625 -0.21263672 9.963125 -0.23777344 10.78125 -0.26367188 C12.85586148 -0.29004405 14.93100865 -0.15486462 17 0 C17.66 0.99 18.32 1.98 19 3 C18.01 3.495 18.01 3.495 17 4 C17 3.34 17 2.68 17 2 C12.05 2 7.1 2 2 2 C2 5.63 2 9.26 2 13 C1.34 13 0.68 13 0 13 C0 8.71 0 4.42 0 0 Z " fill="#477A8C" transform="translate(335,165)"/>
<path d="M0 0 C0.66 0 1.32 0 2 0 C3.55024464 3.10048928 3.28992015 5.57894218 3 9 C1.5625 11.9375 1.5625 11.9375 -1 14 C-4.04588337 14.40891377 -6.94715389 14.2935429 -10 14 C-9.34 12.35 -8.68 10.7 -8 9 C-7.34 9 -6.68 9 -6 9 C-6 9.66 -6 10.32 -6 11 C-4.68 11 -3.36 11 -2 11 C-2 9.68 -2 8.36 -2 7 C-1.34 7 -0.68 7 0 7 C0.66 5.68 1.32 4.36 2 3 C1.01 2.67 0.02 2.34 -1 2 C-0.67 1.34 -0.34 0.68 0 0 Z " fill="#3D778B" transform="translate(314,212)"/>
<path d="M0 0 C0.66 0 1.32 0 2 0 C3.01555658 2.34847458 4.01232745 4.70231851 5 7.0625 C5.28617187 7.71927734 5.57234375 8.37605469 5.8671875 9.05273438 C7.74919569 13.60092083 8.30703201 17.08109142 8 22 C4.7 22 1.4 22 -2 22 C-1.505 20.515 -1.505 20.515 -1 19 C-1 19.66 -1 20.32 -1 21 C1.64 21 4.28 21 7 21 C6.78794922 20.47043701 6.57589844 19.94087402 6.35742188 19.39526367 C5.399639 16.99475457 4.44974557 14.59119968 3.5 12.1875 C3.16613281 11.35412109 2.83226562 10.52074219 2.48828125 9.66210938 C2.17246094 8.85966797 1.85664063 8.05722656 1.53125 7.23046875 C1.23798828 6.49207764 0.94472656 5.75368652 0.64257812 4.99291992 C0 3 0 3 0 0 Z " fill="#5E8F9F" transform="translate(410,164)"/>
<path d="M0 0 C1.39214652 4.17643955 -0.29335734 6.83437793 -1.9375 10.6875 C-2.22818359 11.38939453 -2.51886719 12.09128906 -2.81835938 12.81445312 C-3.53710313 14.54650775 -4.26745331 16.27373781 -5 18 C-5.33 16.68 -5.66 15.36 -6 14 C-7.32 14.33 -8.64 14.66 -10 15 C-9.34 14.01 -8.68 13.02 -8 12 C-7.01 12 -6.02 12 -5 12 C-4.71125 10.9275 -4.4225 9.855 -4.125 8.75 C-2.14285714 2.14285714 -2.14285714 2.14285714 0 0 Z " fill="#447C8E" transform="translate(381,166)"/>
<path d="M0 0 C2.64 0 5.28 0 8 0 C8 1.65 8 3.3 8 5 C5.36 5.33 2.72 5.66 0 6 C0 4.02 0 2.04 0 0 Z " fill="#28697F" transform="translate(336,211)"/>
<path d="M0 0 C0.66 0.33 1.32 0.66 2 1 C2.40729228 3.32156597 2.74438677 5.6568787 3 8 C5.31 8 7.62 8 10 8 C9.67 9.65 9.34 11.3 9 13 C6.61435923 12.42415568 4.33317216 11.77772405 2 11 C2 9.68 2 8.36 2 7 C1.34 7 0.68 7 0 7 C-0.33 7.66 -0.66 8.32 -1 9 C-1.07427838 5.65747276 -1.06546953 3.1964086 0 0 Z M1 4 C2 6 2 6 2 6 Z " fill="#80ADBB" transform="translate(271,210)"/>
<path d="M0 0 C-1 3 -1 3 -3 6 C-3 6.99 -3 7.98 -3 9 C-4.98 9 -6.96 9 -9 9 C-9.33 7.35 -9.66 5.7 -10 4 C-8.68 4 -7.36 4 -6 4 C-5.67 3.01 -5.34 2.02 -5 1 C-3 0 -3 0 0 0 Z " fill="#0F5C74" transform="translate(316,215)"/>
<path d="M0 0 C2.0622048 -0.054348 4.12482816 -0.09294961 6.1875 -0.125 C7.33605469 -0.14820313 8.48460937 -0.17140625 9.66796875 -0.1953125 C12.91740372 -0.00484152 15.08660521 0.60639873 18 2 C18 2.33 18 2.66 18 3 C12.72 3 7.44 3 2 3 C1.67 4.98 1.34 6.96 1 9 C0.67 9 0.34 9 0 9 C0 6.03 0 3.06 0 0 Z " fill="#4E7E91" transform="translate(335,147)"/>
<path d="M0 0 C2 1 2 1 2.8515625 2.86328125 C5.00620227 9.68630718 5.33056661 15.87445306 5 23 C4.34 22.67 3.68 22.34 3 22 C2.54572005 19.23275221 2.20230658 16.53622571 1.9375 13.75 C1.78178845 12.22376943 1.62428016 10.69772095 1.46484375 9.171875 C1.38991699 8.45193359 1.31499023 7.73199219 1.23779297 6.99023438 C0.95562509 4.62859936 0.52419787 2.31945958 0 0 Z " fill="#6D97A8" transform="translate(482,78)"/>
<path d="M0 0 C2.05078125 0.03255208 4.1015625 0.06510417 6.15234375 0.09765625 C6.48234375 1.41765625 6.81234375 2.73765625 7.15234375 4.09765625 C4.84234375 3.76765625 2.53234375 3.43765625 0.15234375 3.09765625 C-0.17765625 4.74765625 -0.50765625 6.39765625 -0.84765625 8.09765625 C-1.50765625 8.09765625 -2.16765625 8.09765625 -2.84765625 8.09765625 C-2.89007348 5.7647085 -2.88858562 3.43063058 -2.84765625 1.09765625 C-1.84765625 0.09765625 -1.84765625 0.09765625 0 0 Z " fill="#4A8CA0" transform="translate(412.84765625,216.90234375)"/>
<path d="M0 0 C0.33 0 0.66 0 1 0 C1.36517527 6.57315478 0.13619737 11.79485526 -2 18 C-3.82943214 11.09536902 -2.6774021 6.4703884 0 0 Z " fill="#6895A9" transform="translate(486,265)"/>
<path d="M0 0 C1.65 0.33 3.3 0.66 5 1 C5 1.99 5 2.98 5 4 C1.66696609 6.49977543 0.26696398 7 -4 7 C-4.33 5.68 -4.66 4.36 -5 3 C-3.35 2.67 -1.7 2.34 0 2 C0 1.34 0 0.68 0 0 Z " fill="#5D90A3" transform="translate(307,207)"/>
<path d="M0 0 C0.33 0.99 0.66 1.98 1 3 C0.4225 3.0825 -0.155 3.165 -0.75 3.25 C-3.6159304 4.20531013 -4.9990764 5.78469173 -7 8 C-7.33 6.68 -7.66 5.36 -8 4 C-8.66 4 -9.32 4 -10 4 C-10 3.34 -10 2.68 -10 2 C-6.7 2 -3.4 2 0 2 C0 1.34 0 0.68 0 0 Z " fill="#185C74" transform="translate(418,184)"/>
<path d="M0 0 C1.98 0 3.96 0 6 0 C4.59719304 2.80561393 2.9490995 3.00680507 0.0625 4.125 C-0.83339844 4.47820312 -1.72929687 4.83140625 -2.65234375 5.1953125 C-5 6 -5 6 -7 6 C-7 5.01 -7 4.02 -7 3 C-3.535 2.505 -3.535 2.505 0 2 C0 1.34 0 0.68 0 0 Z " fill="#548594" transform="translate(452,314)"/>
<path d="M0 0 C0.33 0 0.66 0 1 0 C1 2.64 1 5.28 1 8 C3.97 8 6.94 8 10 8 C10.33 7.34 10.66 6.68 11 6 C11 6.99 11 7.98 11 9 C6.38 9 1.76 9 -3 9 C-2.01 6.03 -1.02 3.06 0 0 Z " fill="#437985" transform="translate(392,161)"/>
<path d="M0 0 C1.125 1.75 1.125 1.75 2 4 C1.34 5.32 0.68 6.64 0 8 C-3.3 8 -6.6 8 -10 8 C-10 7.34 -10 6.68 -10 6 C-7.03 6 -4.06 6 -1 6 C-0.67 4.02 -0.34 2.04 0 0 Z " fill="#70A3B2" transform="translate(385,179)"/>
<path d="M0 0 C4.62 0 9.24 0 14 0 C14 0.33 14 0.66 14 1 C10.37 1 6.74 1 3 1 C2.67 2.65 2.34 4.3 2 6 C1.34 6.99 0.68 7.98 0 9 C0 6.03 0 3.06 0 0 Z " fill="#7FA9BB" transform="translate(282,140)"/>
<path d="M0 0 C1.9375 0.625 1.9375 0.625 4 2 C4.75 5.125 4.75 5.125 5 8 C3.68 7.67 2.36 7.34 1 7 C1 6.34 1 5.68 1 5 C0.34 5 -0.32 5 -1 5 C-0.67 3.35 -0.34 1.7 0 0 Z " fill="#6596A9" transform="translate(289,149)"/>
<path d="M0 0 C0.66 0.99 1.32 1.98 2 3 C1.5390625 5.26171875 1.5390625 5.26171875 0.625 7.6875 C0.18027344 8.89986328 0.18027344 8.89986328 -0.2734375 10.13671875 C-0.51320312 10.75160156 -0.75296875 11.36648437 -1 12 C-1.66 12 -2.32 12 -3 12 C-2.14285714 3.42857143 -2.14285714 3.42857143 0 0 Z " fill="#568697" transform="translate(206,78)"/>
<path d="M0 0 C2.09350689 3.4019487 2.17942163 6.05272412 2 10 C-1.3 10 -4.6 10 -8 10 C-7.67 9.01 -7.34 8.02 -7 7 C-7 7.66 -7 8.32 -7 9 C-4.36 9 -1.72 9 1 9 C0.649375 8.443125 0.29875 7.88625 -0.0625 7.3125 C-1.21845993 4.46113217 -0.80967438 2.91482778 0 0 Z " fill="#8EB9C4" transform="translate(416,176)"/>
<path d="M0 0 C2.31 0 4.62 0 7 0 C5.68 0.99 4.36 1.98 3 3 C3.33 3.66 3.66 4.32 4 5 C4.99 5.33 5.98 5.66 7 6 C4.69 6 2.38 6 0 6 C0 4.02 0 2.04 0 0 Z " fill="#276176" transform="translate(410,211)"/>
<path d="M0 0 C0.99 0.495 0.99 0.495 2 1 C2 1.66 2 2.32 2 3 C3.32 2.67 4.64 2.34 6 2 C6.33 2.66 6.66 3.32 7 4 C6.01 4 5.02 4 4 4 C4 6.64 4 9.28 4 12 C1.21366885 7.82050327 0 5.06624674 0 0 Z " fill="#6FA0AF" transform="translate(305,166)"/>
<path d="M0 0 C0.66 0 1.32 0 2 0 C5.42857143 8.42857143 5.42857143 8.42857143 5 13 C2.94876752 10.94876752 2.35852882 9.72994937 1.375 7.0625 C0.98441406 6.02802734 0.98441406 6.02802734 0.5859375 4.97265625 C0 3 0 3 0 0 Z " fill="#4E8392" transform="translate(404,147)"/>
<path d="M0 0 C0.66 1.32 1.32 2.64 2 4 C2.66 4 3.32 4 4 4 C4.53012738 5.28788008 5.0488329 6.58046678 5.5625 7.875 C5.85253906 8.59429687 6.14257812 9.31359375 6.44140625 10.0546875 C7 12 7 12 6 14 C4.9923048 12.2335343 3.99408286 10.46166177 3 8.6875 C2.443125 7.70136719 1.88625 6.71523438 1.3125 5.69921875 C0 3 0 3 0 0 Z " fill="#6595A3" transform="translate(207,284)"/>
<path d="M0 0 C0.33 0 0.66 0 1 0 C1.20666253 5.06323209 0.80886571 9.23982707 -1 14 C-1.99 14.33 -2.98 14.66 -4 15 C-3.79503906 14.41992188 -3.59007812 13.83984375 -3.37890625 13.2421875 C-1.85990187 8.8378016 -0.5952849 4.64322223 0 0 Z " fill="#63919F" transform="translate(287,154)"/>
<path d="M0 0 C0.66 0 1.32 0 2 0 C2 0.66 2 1.32 2 2 C3.65 2.33 5.3 2.66 7 3 C7 3.66 7 4.32 7 5 C4.03 5 1.06 5 -2 5 C-1.34 3.35 -0.68 1.7 0 0 Z " fill="#6A99A8" transform="translate(306,221)"/>
<path d="M0 0 C0.33 0 0.66 0 1 0 C1 3.96 1 7.92 1 12 C-0.32 12.33 -1.64 12.66 -3 13 C-2.690625 12.34 -2.38125 11.68 -2.0625 11 C-0.75039745 7.29523985 -0.39735865 3.90736009 0 0 Z " fill="#548693" transform="translate(364,168)"/>
<path d="M0 0 C2.70272533 2.87164566 3.94791837 4.30991841 4.25 8.3125 C4.1675 9.199375 4.085 10.08625 4 11 C2 10 2 10 0.875 7.75 C-0.00513321 4.98386705 -0.1645438 2.87951649 0 0 Z " fill="#6D9CAA" transform="translate(203,273)"/>
<path d="M0 0 C1.98 0.99 1.98 0.99 4 2 C4 2.66 4 3.32 4 4 C4.66 4.33 5.32 4.66 6 5 C3 7 3 7 0 7 C0 4.69 0 2.38 0 0 Z " fill="#266781" transform="translate(304,214)"/>
<path d="M0 0 C2.97 0.33 5.94 0.66 9 1 C8.67 1.66 8.34 2.32 8 3 C5.67843403 3.40729228 3.3431213 3.74438677 1 4 C0.67 2.68 0.34 1.36 0 0 Z " fill="#7BABB5" transform="translate(269,184)"/>
<path d="M0 0 C0.93065133 2.60582371 1.14917407 3.64198224 0.0625 6.25 C-0.4634375 7.11625 -0.4634375 7.11625 -1 8 C-2.32 6.68 -3.64 5.36 -5 4 C-4.67 3.34 -4.34 2.68 -4 2 C-2.515 2.99 -2.515 2.99 -1 4 C-0.67 2.68 -0.34 1.36 0 0 Z " fill="#40788D" transform="translate(280,221)"/>
<path d="M0 0 C1.32 0 2.64 0 4 0 C4 1.32 4 2.64 4 4 C2.35 4 0.7 4 -1 4 C-0.67 2.68 -0.34 1.36 0 0 Z " fill="#0C5A76" transform="translate(339,219)"/>
<path d="M0 0 C2.64 0.99 5.28 1.98 8 3 C4.25 6 4.25 6 2 6 C2 5.01 2 4.02 2 3 C1.34 3 0.68 3 0 3 C0 2.01 0 1.02 0 0 Z " fill="#2F728C" transform="translate(280,177)"/>
<path d="M0 0 C2.79872437 2.52788007 4.45773019 4.20411134 5 8 C3.68 7.67 2.36 7.34 1 7 C0.67 4.69 0.34 2.38 0 0 Z " fill="#6396A4" transform="translate(474,63)"/>
<path d="M0 0 C2.31 0.33 4.62 0.66 7 1 C7 1.66 7 2.32 7 3 C7.66 3.33 8.32 3.66 9 4 C8.01 4.495 8.01 4.495 7 5 C4.5249829 3.88568235 2.32116581 2.41849022 0 1 C0 0.67 0 0.34 0 0 Z " fill="#6090A1" transform="translate(228,312)"/>
<path d="M0 0 C-2.55068845 2.35448165 -3.71017358 2.98327924 -7.25 3.1875 C-8.1575 3.125625 -9.065 3.06375 -10 3 C-9 1 -9 1 -7.25 0.375 C-4.79549443 -0.03408426 -2.4840589 -0.06900164 0 0 Z " fill="#508292" transform="translate(254,40)"/>
<path d="M0 0 C0.66 0 1.32 0 2 0 C1.25 5.75 1.25 5.75 -1 8 C-1.66 7.34 -2.32 6.68 -3 6 C-2.67 5.34 -2.34 4.68 -2 4 C-1.34 4 -0.68 4 0 4 C0 2.68 0 1.36 0 0 Z " fill="#39748D" transform="translate(363,151)"/>
<path d="M0 0 C0.598125 0.20625 1.19625 0.4125 1.8125 0.625 C0.5625 2.125 0.5625 2.125 -1.1875 3.625 C-2.5075 3.625 -3.8275 3.625 -5.1875 3.625 C-5.1875 2.965 -5.1875 2.305 -5.1875 1.625 C-2.1875 -0.375 -2.1875 -0.375 0 0 Z " fill="#407688" transform="translate(231.1875,49.375)"/>
</svg>
