<?xml version="1.0" encoding="UTF-8"?>
<svg version="1.1" xmlns="http://www.w3.org/2000/svg" width="255" height="255">
<path d="M0 0 C1.11503161 -0.00551503 1.11503161 -0.00551503 2.25258911 -0.01114148 C4.75668698 -0.02220107 7.26074339 -0.02602604 9.76486206 -0.02983093 C11.55511101 -0.03609399 13.34535865 -0.04274065 15.13560486 -0.04974365 C20.00983054 -0.06717081 24.8840464 -0.07771061 29.75829554 -0.08594918 C32.80336204 -0.0910969 35.84842549 -0.09717281 38.89348984 -0.10346031 C48.41998263 -0.12251926 57.94646765 -0.13674753 67.47297585 -0.14507228 C78.47064529 -0.15484095 89.46811326 -0.18114789 100.46571171 -0.22157317 C108.96432228 -0.25174041 117.46287513 -0.26654183 125.9615382 -0.26985329 C131.03790712 -0.27220356 136.11406098 -0.28116059 141.19037247 -0.30631447 C145.96908556 -0.32961004 150.74744225 -0.3338224 155.52619743 -0.32355309 C157.27731322 -0.32305794 159.02844662 -0.32937218 160.77950859 -0.34310913 C176.92543285 -0.462653 176.92543285 -0.462653 183.86593628 4.14717102 C185.20204956 4.65763977 185.20204956 4.65763977 186.56515503 5.17842102 C195.71745931 9.03202282 203.95089252 18.11429785 208.21359253 26.93623352 C209.17249391 29.32145774 210.03783274 31.71432446 210.86593628 34.14717102 C211.19593628 34.80717102 211.52593628 35.46717102 211.86593628 36.14717102 C211.96991788 38.53459796 212.01373555 40.89326138 212.0131073 43.28123474 C212.01678399 44.02458915 212.02046068 44.76794355 212.02424878 45.53382385 C212.03530837 48.03792172 212.03913334 50.54197813 212.04293823 53.0460968 C212.04920129 54.83634575 212.05584795 56.62659339 212.06285095 58.4168396 C212.08027811 63.29106528 212.09081791 68.16528114 212.09905648 73.03953028 C212.1042042 76.08459678 212.11028011 79.12966023 212.11656761 82.17472458 C212.13562656 91.70121737 212.14985483 101.22770239 212.15817958 110.75421059 C212.16794825 121.75188003 212.19425519 132.749348 212.23468047 143.74694645 C212.26484771 152.24555702 212.27964913 160.74410987 212.28296059 169.24277294 C212.28531086 174.31914186 212.29426789 179.39529572 212.31942177 184.47160721 C212.34271734 189.2503203 212.3469297 194.02867699 212.33666039 198.80743217 C212.33616524 200.55854796 212.34247948 202.30968136 212.35621643 204.06074333 C212.47566828 220.19423921 212.47566828 220.19423921 207.86593628 227.14717102 C207.56042847 228.01471008 207.25492065 228.88224915 206.94015503 229.77607727 C205.44533937 233.0755431 203.14366356 235.48771719 200.67843628 238.08467102 C199.9298938 238.8785321 199.9298938 238.8785321 199.16622925 239.68843079 C197.74247284 241.18436661 196.30559359 242.66656298 194.86593628 244.14717102 C193.962948 245.10623352 193.962948 245.10623352 193.04171753 246.08467102 C183.0796287 255.72054535 169.887346 255.87837991 156.96530151 255.79414368 C155.19961653 255.80093369 153.43393864 255.80984453 151.66827393 255.82069397 C146.90994584 255.84332787 142.15216479 255.83471776 137.39382815 255.81879854 C132.39331102 255.80605849 127.39283787 255.81790183 122.39231873 255.82572937 C113.9990811 255.83480162 105.60606415 255.82290099 97.21286011 255.79902649 C87.53386144 255.77181105 77.85538942 255.78064226 68.17640346 255.80815852 C59.83797297 255.83090727 51.49970026 255.83402181 43.16124874 255.82096517 C38.19334831 255.81320343 33.22569479 255.81203846 28.25781059 255.82864761 C23.58631698 255.8431777 18.91549721 255.83291602 14.24407578 255.80417633 C12.53819328 255.79761124 10.83225325 255.79938398 9.12639427 255.81048965 C-5.13251621 255.89470392 -17.24157455 252.94519956 -28.13406372 243.14717102 C-39.93245447 230.08775168 -43.89299266 218.65456608 -43.76516724 201.22651672 C-43.77031367 199.43493442 -43.77760039 197.6433572 -43.78684998 195.85179138 C-43.80527592 191.01509012 -43.79248293 186.17894407 -43.77275968 181.34226632 C-43.75630644 176.26780377 -43.76519498 171.19337453 -43.77027893 166.11889648 C-43.7747912 157.60275966 -43.75898075 149.08684311 -43.73098755 140.570755 C-43.69890874 130.73613333 -43.69896622 120.90190811 -43.71620232 111.06725818 C-43.73208224 101.58717922 -43.72532639 92.10724511 -43.7082653 82.62717247 C-43.70140716 78.60062473 -43.70241445 74.57419353 -43.70981026 70.54764748 C-43.71748871 65.80567933 -43.70529612 61.06416097 -43.67796135 56.32226944 C-43.67109396 54.58568468 -43.67096184 52.84905779 -43.67817688 51.11247444 C-43.73697418 35.11358758 -43.73697418 35.11358758 -39.13406372 28.14717102 C-38.80535278 27.2680304 -38.47664185 26.38888977 -38.13796997 25.48310852 C-33.7596475 15.29541655 -23.80705585 6.85413695 -13.69656372 2.77217102 C-12.17755037 2.2254213 -10.6570785 1.68267338 -9.13406372 1.14717102 C-6.19349114 -0.32311527 -3.22390369 -0.00084817 0 0 Z " fill="#FDFDFD" transform="translate(43.134063720703125,-0.1471710205078125)"/>
<path d="M0 0 C0.98742187 0.25652344 1.97484375 0.51304688 2.9921875 0.77734375 C23.84786151 6.60392894 42.36176463 19.51033435 53.51171875 38.32421875 C54.00285156 39.20722656 54.49398437 40.09023437 55 41 C55.46019531 41.81082031 55.92039063 42.62164062 56.39453125 43.45703125 C66.02738216 61.47133552 68.15631375 84.28592299 62.42919922 103.9609375 C55.67346438 125.09348335 42.1688281 143.49892831 22.66796875 154.625 C0.31992286 166.14258734 -22.85580898 168.2549582 -46.82324219 160.73974609 C-56.31871234 157.51281983 -64.1534663 152.13205983 -72 146 C-72.91845703 145.33097656 -72.91845703 145.33097656 -73.85546875 144.6484375 C-83.74673436 136.98916769 -91.20883726 125.36544431 -96 114 C-96.38800781 113.08605469 -96.77601562 112.17210937 -97.17578125 111.23046875 C-104.14683688 93.51131281 -105.04146186 70.8262296 -98 53 C-96.2431602 49.25470202 -94.32869412 45.62478259 -92.29296875 42.0234375 C-90.83528291 39.1475184 -90.83528291 39.1475184 -90.96875 36.38671875 C-92.40427178 33.06435584 -94.44809623 31.61899956 -97.3125 29.4375 C-100.76347783 26.77900306 -103.98936635 24.15365662 -107 21 C-101.18925761 17.12617174 -93.92175181 16.93196502 -87.06640625 17.00390625 C-75.40765226 17.05215824 -68.73809336 15.61190546 -59.48046875 8.51171875 C-54.24305411 4.53187127 -48.2642355 2.78150512 -42 1 C-40.97777344 0.68289062 -39.95554687 0.36578125 -38.90234375 0.0390625 C-26.63583366 -3.34159388 -12.27021765 -3.54337968 0 0 Z " fill="#1B3D6C" transform="translate(149,46)"/>
<path d="M0 0 C0.66016113 0.25201172 1.32032227 0.50402344 2.00048828 0.76367188 C10.62158842 4.11174988 18.06896128 7.76206515 25 14 C25.80695313 14.66644531 26.61390625 15.33289063 27.4453125 16.01953125 C40.81985737 27.36948905 46.85891806 40.61013493 53.41015625 56.3984375 C59.52924776 69.9924542 70.30287178 77.75207425 82.82421875 85.0390625 C86 87 86 87 87 89 C85.41701974 89.4803318 83.83360022 89.95921612 82.25 90.4375 C81.36828125 90.70433594 80.4865625 90.97117187 79.578125 91.24609375 C78.72734375 91.49488281 77.8765625 91.74367188 77 92 C76.41033447 92.17563477 75.82066895 92.35126953 75.21313477 92.53222656 C61.06548822 95.52250685 43.44546582 94.16873435 30 89 C28.42992188 88.43925781 28.42992188 88.43925781 26.828125 87.8671875 C10.22560687 81.5042935 -3.81044884 69.97155306 -11.55078125 53.75 C-13.60419787 48.99583644 -15.528596 44.197237 -17.42578125 39.37890625 C-22.42073928 26.39791472 -22.42073928 26.39791472 -32 17 C-32.43441406 16.23816406 -32.86882813 15.47632812 -33.31640625 14.69140625 C-35.19676771 11.68544559 -37.12008895 10.0685643 -39.9375 7.9375 C-43.19172996 5.45878789 -46.16518029 2.95321125 -49 0 C-36.4771741 -8.3485506 -13.14140729 -5.07159873 0 0 Z " fill="#CCA83A" transform="translate(91,67)"/>
<path d="M0 0 C-1.37261114 3.07654221 -2.97045421 5.15813813 -5.3125 7.5625 C-11.01154434 13.98429217 -13.71272688 21.10275821 -15.4375 29.4375 C-17.96023148 41.20095508 -23.5890471 49.55166509 -32 58 C-38.32371318 55.32667061 -41.08943647 49.30105711 -43.6484375 43.2109375 C-44.70274378 40.60556622 -45.71054495 37.98488111 -46.703125 35.35546875 C-47.83841252 32.13999299 -47.83841252 32.13999299 -49.234375 29.92578125 C-50.4305277 26.91709105 -49.92198988 25.0732996 -49 22 C-47.38737117 19.78839475 -45.88106046 17.94653245 -44 16 C-43.50306641 15.47599609 -43.00613281 14.95199219 -42.49414062 14.41210938 C-38.40198687 10.20468369 -34.23805283 6.71336527 -29 4 C-28.21753906 3.59007813 -27.43507812 3.18015625 -26.62890625 2.7578125 C-18.04325287 -1.03189751 -9.18028369 -0.36357559 0 0 Z " fill="#FAFBFC" transform="translate(194,75)"/>
<path d="M0 0 C2.77741937 1.10148131 5.53694325 2.22920645 8.28515625 3.40234375 C17.7754215 7.31874007 26.91536427 9.19712378 37.08984375 10.45703125 C41 11 41 11 42 12 C43.06483351 28.14706557 40.41401732 39.56651461 31 53 C28.40267541 50.40267541 27.97232918 48.06551238 26.875 44.5625 C23.47485721 34.47502025 17.42310244 27.21408 9.8203125 19.89453125 C5.09174587 14.97316899 0 7.02345305 0 0 Z " fill="#CAA63A" transform="translate(104,157)"/>
<path d="M0 0 C0.66 0 1.32 0 2 0 C0.55575365 3.23861303 -1.25772247 5.61969163 -3.625 8.25 C-4.25664062 8.95640625 -4.88828125 9.6628125 -5.5390625 10.390625 C-6.02117188 10.92171875 -6.50328125 11.4528125 -7 12 C-7.66 11.67 -8.32 11.34 -9 11 C-7.68823998 9.35357683 -6.3755713 7.70787757 -5.0625 6.0625 C-4.33160156 5.14597656 -3.60070312 4.22945312 -2.84765625 3.28515625 C-1 1 -1 1 0 0 Z " fill="#989898" transform="translate(16,11)"/>
<path d="M0 0 C2.1875 0.3125 2.1875 0.3125 4 1 C3.01 1.495 3.01 1.495 2 2 C2.33 3.65 2.66 5.3 3 7 C1.02 5.68 -0.96 4.36 -3 3 C-1.75 1.4375 -1.75 1.4375 0 0 Z " fill="#D6B858" transform="translate(45,65)"/>
</svg>
