<?xml version="1.0" encoding="UTF-8"?>
<svg version="1.1" xmlns="http://www.w3.org/2000/svg" width="225" height="225">
<path d="M0 0 C1.52907551 1.52907551 1.17189386 2.94051178 1.22460938 5.07324219 C1.25838684 6.37029083 1.25838684 6.37029083 1.29284668 7.69354248 C1.36364639 11.66214619 1.42139019 15.63055534 1.45996094 19.59960938 C1.48656559 21.6929411 1.52748816 23.78614179 1.58300781 25.87890625 C1.66209556 28.89376919 1.6952616 31.90612715 1.71875 34.921875 C1.75174194 35.85537781 1.78473389 36.78888062 1.81872559 37.75067139 C1.79923687 44.08552367 1.79923687 44.08552367 -0.45405579 46.66371155 C-2.24552438 47.98315484 -4.00503032 49.01988165 -6 50 C-6.7633667 50.39823975 -7.5267334 50.79647949 -8.31323242 51.20678711 C-8.98717041 51.4775708 -9.6611084 51.74835449 -10.35546875 52.02734375 C-11.13172607 52.34155273 -11.9079834 52.65576172 -12.70776367 52.97949219 C-13.52607666 53.29563477 -14.34438965 53.61177734 -15.1875 53.9375 C-16.49908081 54.44845215 -16.49908081 54.44845215 -17.8371582 54.96972656 C-67.80082888 74.0725615 -121.07513789 72.66553194 -170 51 C-173.3 49.35 -176.6 47.7 -180 46 C-180 30.82 -180 15.64 -180 0 C-179.34 0 -178.68 0 -178 0 C-178 -0.66 -178 -1.32 -178 -2 C-175.71572089 -2.91371164 -173.4310125 -3.82617825 -171.14453125 -4.734375 C-168.98884881 -5.60200371 -166.84066467 -6.48843003 -164.69921875 -7.390625 C-113.11493543 -28.81360605 -48.91836829 -29.2796073 0 0 Z " fill="#030303" transform="translate(202,22)"/>
<path d="M0 0 C0.62229492 0.27150879 1.24458984 0.54301758 1.88574219 0.82275391 C26.12195561 11.3310424 51.28060047 20.3395823 78 21 C78.89251465 21.02578125 79.7850293 21.0515625 80.70458984 21.078125 C115.97329232 21.97941751 147.07248282 14.52422719 179 0 C180.51896625 1.51896625 180.20894088 2.92071718 180.30395508 5.04150391 C180.34261185 5.89974762 180.38126862 6.75799133 180.4210968 7.64224243 C180.55823195 11.59091002 180.65722979 15.53947034 180.73461914 19.48974609 C180.7862907 21.56989065 180.86127102 23.64959443 180.96020508 25.72802734 C181.76299337 42.89702943 181.76299337 42.89702943 177.64013672 47.81494141 C174.47264721 49.72053164 171.52295838 50.89814577 168 52 C166.23811772 52.74916667 164.47759689 53.50154701 162.71875 54.2578125 C160.98483739 54.89583585 159.24501609 55.51800281 157.5 56.125 C156.08243408 56.62519653 156.08243408 56.62519653 154.63623047 57.13549805 C106.10058165 73.87709683 56.88279906 70.34595689 9.65454102 51.29858398 C8.77854248 50.87005127 7.90254395 50.44151855 7 50 C6.31916855 49.70314301 5.6383371 49.40628601 4.93687439 49.10043335 C2.60636794 47.92284722 0.85196391 46.84692664 -1 45 C-2.1066627 41.62947848 -1.96019211 38.43991292 -1.81640625 34.921875 C-1.80745834 33.95469543 -1.79851044 32.98751587 -1.78929138 31.99102783 C-1.7512119 28.90875304 -1.65697849 25.83100844 -1.5625 22.75 C-1.53093958 20.66150917 -1.5029043 18.57296189 -1.47851562 16.484375 C-1.42002736 12.67996414 -1.3537173 8.87645292 -1.24047852 5.07324219 C-1.21856949 4.30888855 -1.19666046 3.54453491 -1.17408752 2.75701904 C-1 1 -1 1 0 0 Z " fill="#070707" transform="translate(23,90)"/>
<path d="M0 0 C3.70545177 0.74109035 6.05883585 1.33321836 9.34375 2.85546875 C56.22624887 24.06804363 109.28847227 27.04097287 157.76464844 8.88720703 C162.666902 6.94151137 167.47797087 4.77762066 172.25317383 2.53979492 C177.70762972 0 177.70762972 0 181 0 C181 14.85 181 29.7 181 45 C134.16877483 68.41561258 80.79633571 74.8086555 30.43359375 58.22265625 C25.59133571 56.56371429 20.78844369 54.80772863 16 53 C14.47659669 52.42959618 12.95316102 51.85927878 11.4296875 51.2890625 C10.29789063 50.86367187 9.16609375 50.43828125 8 50 C8 49.34 8 48.68 8 48 C6.68 48 5.36 48 4 48 C4 47.34 4 46.68 4 46 C2.68 45.67 1.36 45.34 0 45 C0 30.15 0 15.3 0 0 Z " fill="#070707" transform="translate(22,158)"/>
</svg>
