<?xml version="1.0" standalone="no"?>
<!DOCTYPE svg PUBLIC "-//W3C//DTD SVG 20010904//EN"
 "http://www.w3.org/TR/2001/REC-SVG-20010904/DTD/svg10.dtd">
<svg version="1.0" xmlns="http://www.w3.org/2000/svg"
 width="278.000000pt" height="137.000000pt" viewBox="0 0 278.000000 137.000000"
 preserveAspectRatio="xMidYMid meet">

<g transform="translate(0.000000,137.000000) scale(0.100000,-0.100000)"
fill="#000000" stroke="none">
<path d="M1747 1013 c-4 -3 -7 -28 -7 -55 0 -46 1 -48 29 -48 31 0 41 18 41
78 0 29 -3 32 -28 32 -16 0 -32 -3 -35 -7z"/>
<path d="M1826 1008 c-3 -7 -7 -32 -10 -55 -6 -42 -6 -43 24 -43 30 0 30 1 30
55 0 49 -2 55 -20 55 -11 0 -22 -6 -24 -12z"/>
<path d="M220 1000 c14 -4 50 -9 80 -9 80 -2 102 -9 98 -35 -3 -18 -12 -22
-68 -27 -36 -4 -110 -8 -165 -10 l-100 -3 120 -6 c66 -4 140 -8 163 -9 35 -1
45 -5 49 -21 4 -15 14 -20 38 -20 18 0 38 -7 45 -16 8 -9 25 -14 44 -12 53 5
37 32 -41 67 -25 11 -29 26 -12 37 6 3 23 -9 38 -27 30 -36 51 -33 51 8 0 24
2 25 45 20 25 -2 54 -12 64 -21 10 -9 24 -16 32 -16 9 0 28 -13 43 -29 25 -26
28 -36 28 -101 0 -65 -3 -75 -28 -101 -15 -16 -36 -31 -46 -35 -26 -8 -22 -27
5 -19 12 4 37 23 55 42 30 34 32 41 32 112 0 71 -2 79 -31 114 -19 24 -39 37
-54 37 -13 0 -27 5 -30 10 -9 14 47 12 65 -3 8 -7 27 -27 43 -45 25 -31 27
-41 27 -115 0 -81 0 -82 -39 -125 -26 -28 -47 -42 -63 -42 -21 0 -27 -6 -34
-42 -10 -49 -37 -68 -96 -68 l-38 0 0 61 c0 57 -1 60 -22 57 -13 -2 -27 -13
-33 -26 -5 -12 -16 -21 -24 -20 -22 4 -25 27 -4 35 10 3 25 12 33 18 8 7 24
15 35 17 11 2 20 10 20 18 0 25 -40 23 -73 -4 -16 -15 -40 -26 -53 -26 -13 0
-33 -7 -43 -15 -11 -8 -43 -16 -70 -16 l-51 -2 63 -9 c56 -9 62 -12 62 -34 0
-26 -14 -32 -90 -37 -44 -2 -44 -2 20 -12 51 -8 66 -14 68 -29 6 -28 -15 -36
-98 -37 l-75 -2 75 -8 c41 -4 156 -7 255 -5 288 5 301 17 316 291 10 176 3
220 -36 259 -14 14 -42 30 -62 35 -44 13 -571 13 -533 1z"/>
<path d="M1958 934 c-2 -36 -9 -68 -15 -72 -14 -10 -33 -47 -33 -66 0 -10 9
-16 21 -16 21 0 22 -3 17 -84 -6 -93 -1 -104 54 -125 43 -16 64 19 73 124 l7
85 33 0 c35 0 45 13 45 56 0 21 -4 24 -41 24 l-42 0 7 70 7 70 -64 0 -65 0 -4
-66z"/>
<path d="M2227 993 c-4 -3 -7 -35 -7 -70 0 -48 -3 -63 -14 -63 -8 0 -18 -10
-21 -22 -4 -13 -9 -31 -11 -40 -4 -13 1 -18 17 -18 22 0 22 0 16 -135 -4 -74
-4 -135 1 -135 21 1 30 20 30 63 0 27 3 51 7 55 3 3 5 -9 4 -28 -2 -19 3 -45
9 -57 7 -12 12 -33 12 -47 0 -26 36 -96 50 -96 4 0 24 21 44 47 l37 48 -27 7
c-36 10 -44 24 -44 83 0 51 -28 115 -51 115 -15 0 -36 -23 -42 -46 -4 -17 -5
-17 -6 2 0 12 6 27 15 35 16 13 15 44 -1 83 -8 19 -8 19 12 0 11 -10 18 -25
15 -32 -2 -7 7 -24 22 -39 14 -14 26 -30 26 -35 0 -5 5 -6 10 -3 6 3 10 30 10
60 l0 54 38 3 c35 3 37 5 40 41 3 36 3 37 -32 37 l-36 0 0 70 0 70 -58 0 c-32
0 -62 -3 -65 -7z"/>
<path d="M690 860 c0 -11 7 -20 15 -20 8 0 15 -7 15 -15 0 -8 -7 -15 -15 -15
-8 0 -15 -9 -15 -20 0 -11 7 -20 15 -20 8 0 15 -7 15 -16 0 -11 -6 -14 -20 -9
-14 4 -20 2 -20 -8 0 -8 9 -17 21 -20 23 -6 17 -27 -7 -27 -8 0 -14 -9 -14
-20 0 -26 9 -25 43 4 26 23 39 76 17 76 -15 0 -12 41 5 54 13 10 12 15 -6 44
-23 36 -49 42 -49 12z"/>
<path d="M1003 859 c-31 -9 -83 -68 -83 -94 0 -6 23 -16 51 -21 47 -10 51 -9
59 10 4 12 15 28 24 35 9 8 16 28 16 47 0 37 -8 40 -67 23z"/>
<path d="M1090 840 c0 -18 10 -39 25 -54 24 -24 26 -25 77 -11 29 7 54 12 56
10 3 -2 -70 -31 -105 -40 -6 -2 -13 -14 -15 -26 -2 -20 -13 -25 -65 -36 -118
-23 -173 -73 -173 -156 0 -61 15 -91 56 -111 57 -26 105 -19 154 24 22 19 26
19 36 6 6 -9 30 -22 53 -31 l41 -14 30 41 c30 40 30 42 11 59 -17 16 -18 29
-14 146 5 106 3 134 -10 160 -19 36 -71 63 -121 63 -33 0 -36 -2 -36 -30z m40
-260 c0 -41 -5 -56 -24 -75 -37 -36 -86 -12 -86 43 0 32 52 82 84 82 25 0 26
-3 26 -50z"/>
<path d="M1304 838 c3 -13 14 -54 23 -93 9 -38 17 -71 18 -73 2 -2 67 19 74
24 2 2 -6 20 -18 41 l-21 38 30 -35 c16 -19 30 -44 30 -57 0 -18 25 -43 43
-43 3 0 -17 103 -38 198 -5 20 -11 22 -76 22 -69 0 -71 -1 -65 -22z"/>
<path d="M1586 808 c-8 -29 -26 -95 -40 -145 l-25 -93 32 0 c57 1 57 1 137
263 9 27 8 27 -40 27 l-49 0 -15 -52z"/>
<path d="M1731 763 l0 -98 21 42 c12 23 30 44 40 47 16 4 18 8 9 25 -6 11 -11
33 -11 50 0 28 -3 31 -30 31 l-30 0 1 -97z"/>
<path d="M1801 833 c1 -42 24 -98 41 -101 11 -2 17 9 22 44 11 81 10 84 -29
84 -32 0 -35 -3 -34 -27z"/>
<path d="M255 840 c-76 -3 -105 -7 -70 -9 33 -1 94 -6 135 -10 41 -4 80 -4 86
1 7 5 21 0 37 -12 26 -21 107 -29 107 -10 0 6 -15 10 -33 10 -21 0 -41 8 -52
20 -12 13 -29 19 -49 18 -17 -1 -89 -5 -161 -8z"/>
<path d="M400 795 c0 -24 -35 -35 -112 -35 -51 0 -68 -3 -58 -10 8 -5 42 -10
75 -10 68 0 89 -9 83 -36 -3 -16 -18 -21 -93 -30 l-90 -11 70 -2 c40 0 82 -8
99 -16 41 -22 59 -19 91 15 19 20 39 30 59 31 28 1 27 2 -9 9 -27 6 -49 4 -66
-5 -32 -15 -61 -3 -42 16 8 8 37 11 78 10 41 -2 65 2 65 8 0 7 -28 11 -75 11
-100 0 -98 19 3 22 52 1 62 3 32 5 -25 3 -52 10 -60 17 -25 22 -50 27 -50 11z"/>
<path d="M1755 683 c-24 -42 -28 -62 -33 -160 l-5 -113 65 0 66 0 7 146 c4 83
3 150 -2 155 -5 5 -22 11 -39 15 -29 6 -33 3 -59 -43z"/>
<path d="M1356 662 c-5 -8 5 -63 32 -172 l19 -75 78 0 79 0 8 30 c5 17 13 44
18 60 4 17 11 39 16 49 6 16 4 18 -12 11 -10 -4 -36 -11 -56 -15 l-37 -7 -7
43 c-3 24 -10 44 -14 44 -18 0 -31 -31 -26 -62 6 -30 5 -31 -4 -8 -6 13 -8 35
-5 48 8 32 -20 62 -56 62 -15 0 -30 -3 -33 -8z m114 -215 c-7 -17 -9 -10 -9
28 1 43 2 46 9 22 5 -16 5 -38 0 -50z"/>
<path d="M1940 531 c0 -72 24 -107 82 -120 37 -9 39 -7 79 40 34 40 38 49 22
49 -28 0 -54 22 -56 48 -2 26 -1 26 -26 10 -15 -9 -26 -7 -55 10 -21 12 -39
22 -42 22 -2 0 -4 -27 -4 -59z"/>
<path d="M2210 500 c-13 -8 -13 -13 0 -37 17 -30 65 -62 76 -51 3 4 -3 19 -15
34 -11 15 -21 35 -21 45 0 21 -16 24 -40 9z"/>
</g>
</svg>
